<?xml version="1.0" standalone="no"?>
<!DOCTYPE svg PUBLIC "-//W3C//DTD SVG 20010904//EN"
 "http://www.w3.org/TR/2001/REC-SVG-20010904/DTD/svg10.dtd">
<svg version="1.0" xmlns="http://www.w3.org/2000/svg"
 width="1080.000000pt" height="1080.000000pt" viewBox="0 0 1080.000000 1080.000000"
 preserveAspectRatio="xMidYMid meet">

<g transform="translate(0.000000,1080.000000) scale(0.100000,-0.100000)"
fill="#000000" stroke="none">
<path d="M0 9995 c0 -443 2 -805 5 -805 2 0 39 20 82 45 64 37 72 40 43 15
-19 -16 -43 -32 -52 -35 -19 -7 -25 -25 -8 -25 6 0 10 5 10 11 0 5 5 7 11 4 5
-4 18 -1 27 7 31 26 72 49 72 40 0 -5 -43 -37 -95 -70 l-95 -62 0 -230 0 -231
75 39 c41 22 75 38 75 37 0 -1 -27 -23 -61 -49 l-60 -47 22 -18 c29 -24 17
-44 -22 -36 -26 6 -29 4 -29 -18 0 -19 6 -26 30 -30 16 -4 30 -12 30 -20 0 -8
34 -21 98 -35 139 -32 168 -36 176 -23 4 6 15 11 24 11 14 0 15 -2 2 -10 -22
-14 -7 -22 77 -37 94 -18 140 -21 170 -10 18 7 22 5 17 -6 -6 -17 1 -20 89
-37 31 -6 57 -13 57 -15 0 -2 -93 -66 -207 -143 -336 -225 -427 -288 -431
-301 -6 -19 40 -12 93 14 56 27 65 29 65 15 0 -5 -8 -10 -18 -10 -10 0 -25 -9
-34 -20 -17 -19 -16 -20 20 -29 20 -6 69 -17 107 -26 39 -8 104 -24 145 -35
113 -30 662 -159 767 -180 73 -15 99 -16 128 -8 19 6 35 15 35 20 0 4 4 8 10
8 6 0 6 -9 0 -26 -14 -35 -14 -34 24 -34 19 0 38 -5 41 -10 3 -6 25 -8 48 -5
30 3 35 2 17 -3 -21 -7 -17 -9 28 -16 35 -4 58 -3 67 4 10 8 20 8 37 -1 l23
-13 -25 -7 c-16 -5 -7 -6 25 -4 40 4 45 3 25 -5 -21 -8 -18 -9 18 -6 30 3 42
0 42 -9 0 -9 12 -12 43 -9 35 3 38 2 17 -6 -19 -7 -11 -8 30 -4 41 4 51 2 40
-6 -12 -9 -10 -10 10 -9 14 1 34 1 45 0 l20 -2 -20 -9 c-13 -6 -3 -7 30 -4 37
3 45 2 30 -5 -15 -8 -9 -9 23 -4 33 4 42 3 40 -8 -2 -9 7 -13 32 -11 29 1 32
0 15 -8 -15 -8 -9 -9 25 -5 27 3 40 2 32 -3 -10 -7 -8 -11 10 -16 20 -6 228
-56 361 -87 26 -6 64 -8 83 -4 20 3 51 1 72 -6 32 -11 34 -13 17 -20 -11 -4 5
-5 36 -2 42 4 66 1 89 -11 18 -9 43 -16 54 -17 21 0 21 -1 1 -10 -14 -6 -7 -7
24 -3 31 4 41 3 37 -5 -5 -7 6 -11 31 -12 31 0 35 -2 18 -10 -14 -6 -6 -8 30
-4 35 3 44 2 30 -4 -16 -8 -11 -10 23 -10 26 -1 50 -8 59 -17 13 -13 28 -14
70 -9 53 6 90 -6 78 -25 -3 -5 14 -11 37 -15 24 -3 55 -11 71 -17 19 -7 31 -7
41 1 15 13 49 4 40 -10 -3 -5 3 -9 14 -9 23 0 56 35 49 52 -2 8 6 19 20 25 24
12 25 11 9 -6 -15 -16 -14 -19 8 -40 16 -15 26 -19 31 -11 10 17 30 6 30 -17
0 -12 19 -36 45 -58 l44 -37 23 26 c12 14 24 22 28 17 3 -5 -1 -12 -7 -15 -7
-3 6 -3 30 0 47 6 113 -13 91 -27 -7 -4 7 -10 35 -14 76 -12 77 7 4 51 -140
85 -237 175 -349 324 -199 265 -313 570 -321 855 l-3 100 115 0 115 0 6 -90
c20 -283 123 -542 303 -759 134 -161 209 -214 536 -380 182 -92 317 -179 398
-255 56 -53 85 -68 105 -54 7 4 71 7 144 5 l132 -3 -15 -36 c-19 -44 -16 -46
81 -68 80 -18 80 -18 117 63 l19 42 134 0 c74 0 135 -3 135 -6 0 -4 -15 -32
-34 -63 -19 -31 -37 -68 -41 -82 -6 -25 -4 -26 82 -46 l88 -21 69 69 c38 38
73 69 77 69 5 0 10 -39 11 -87 l3 -88 55 -12 c47 -11 144 -32 229 -51 24 -5
23 -4 -9 43 -47 69 -149 173 -219 225 l-60 45 -1 133 c0 72 3 132 6 132 23 0
187 -112 268 -184 90 -79 214 -228 279 -336 51 -85 137 -264 137 -287 0 -10
-31 -13 -120 -13 l-120 0 -30 54 -30 53 -68 7 c-37 4 -123 20 -191 37 -68 16
-125 29 -127 29 -2 0 -4 -9 -4 -21 0 -11 -20 -58 -45 -103 -35 -65 -42 -85
-32 -95 9 -10 9 -12 -1 -9 -8 2 -34 -38 -65 -97 -29 -55 -55 -102 -58 -105 -3
-3 -12 -16 -19 -30 -7 -14 -35 -58 -61 -98 -27 -40 -49 -75 -49 -79 0 -3 8
-16 17 -27 17 -20 17 -21 -2 -4 -19 17 -22 15 -95 -60 -197 -204 -468 -361
-744 -432 -122 -31 -362 -59 -376 -43 -4 4 -10 58 -11 118 l-4 110 110 6 c377
22 752 232 954 534 56 83 261 468 261 489 0 11 -49 6 -56 -5 -7 -11 -93 -6
-128 7 -9 4 -16 1 -16 -6 0 -22 -107 -194 -177 -285 -210 -272 -553 -480 -896
-544 l-47 -8 -2 93 c-1 52 -2 104 -2 117 -1 18 7 24 44 35 389 108 660 309
821 606 l40 75 -38 10 c-21 6 -65 17 -97 25 l-59 14 -36 -42 c-158 -185 -364
-338 -576 -427 l-90 -38 -5 67 c-3 37 -3 93 -2 124 l4 57 71 36 c110 56 225
136 302 210 59 57 67 69 50 72 -11 3 -83 20 -160 39 -77 19 -169 38 -205 43
-36 5 -93 18 -127 28 l-63 19 42 41 c23 23 40 44 38 46 -16 14 -179 96 -195
99 -11 2 -24 8 -28 13 -5 6 -7 3 -3 -7 3 -11 -8 -33 -29 -59 -19 -22 -35 -44
-35 -48 0 -8 177 -111 191 -111 5 0 -6 -21 -25 -47 -80 -112 -131 -254 -144
-400 l-7 -78 -115 0 -115 0 2 60 c4 79 21 181 43 254 16 55 17 60 1 64 -13 4
-12 6 6 12 13 4 31 28 47 63 14 32 39 81 56 110 l32 52 -30 0 c-16 0 -47 6
-68 13 -22 8 -69 17 -105 20 l-66 6 -21 -45 c-12 -24 -17 -44 -12 -44 6 0 10
-7 10 -15 0 -8 -8 -15 -18 -15 -15 0 -26 -23 -55 -107 -42 -128 -58 -205 -66
-333 l-6 -95 -115 0 -115 0 3 105 c2 58 10 139 18 180 9 49 10 78 4 84 -14 14
-12 24 5 28 10 2 29 42 51 107 19 57 46 126 59 153 14 28 25 55 25 62 0 12
-79 36 -123 36 -12 1 -40 8 -62 16 -22 8 -62 19 -90 24 -27 5 -115 24 -195 43
-86 20 -151 31 -161 26 -10 -5 -21 -1 -32 12 -11 12 -30 19 -51 19 -19 0 -53
9 -77 20 -24 11 -58 20 -75 20 -16 0 -34 4 -40 9 -5 6 -56 22 -114 36 -58 14
-121 30 -140 35 -19 5 -107 25 -195 44 -88 20 -209 47 -270 61 -60 14 -144 32
-185 41 -41 9 -145 34 -230 56 -96 25 -167 38 -187 34 -35 -5 -44 9 -21 32 9
9 9 12 -3 12 -8 0 -19 -4 -25 -9 -5 -5 -20 -12 -32 -16 -20 -6 -23 -4 -20 12
3 16 -20 24 -187 66 -265 66 -393 94 -514 112 l-105 15 -63 -41 c-35 -23 -63
-45 -63 -49 0 -4 53 -21 118 -38 64 -17 140 -38 167 -46 l50 -16 -45 6 c-25 3
-109 21 -187 40 l-142 36 -96 -67 c-82 -57 -95 -70 -95 -95 0 -25 5 -29 48
-39 61 -15 299 -82 472 -133 195 -57 208 -60 230 -48 16 8 18 8 14 -5 -4 -8
-11 -15 -16 -15 -12 0 -88 -58 -105 -80 -15 -20 -6 -32 15 -21 9 5 28 14 42
20 14 6 35 18 47 27 13 9 23 12 23 7 0 -5 -11 -15 -25 -21 -14 -6 -25 -18 -25
-26 0 -8 -8 -20 -17 -25 -17 -10 -17 -10 0 -11 10 0 70 -15 135 -34 221 -64
275 -77 303 -71 17 4 70 -5 140 -25 l112 -31 49 33 c26 18 48 35 48 38 0 4
-43 18 -96 33 -164 46 -269 80 -259 83 6 2 96 -19 200 -45 l190 -49 50 35
c121 84 215 146 219 142 2 -2 -47 -42 -109 -89 -63 -47 -113 -89 -111 -94 1
-5 31 -18 67 -29 35 -10 84 -25 109 -32 79 -23 9 -16 -95 10 -55 14 -107 25
-115 25 -17 -1 -91 -54 -91 -66 0 -6 131 -49 331 -109 25 -7 36 -14 25 -14
-31 -2 0 -18 60 -31 27 -6 59 -15 70 -20 38 -17 147 -40 157 -33 6 3 8 1 5 -5
-5 -6 9 -13 34 -17 23 -4 58 -14 77 -22 21 -9 50 -12 76 -9 29 4 35 3 21 -3
l-20 -10 20 -1 c11 -1 29 -2 40 -1 15 2 17 0 6 -7 -18 -13 58 -26 91 -17 16 4
19 3 9 -3 -22 -16 7 -26 69 -26 39 1 49 -1 35 -8 -16 -7 -14 -7 9 -4 38 5 68
-5 43 -13 -10 -4 9 -6 40 -7 32 0 85 -8 118 -19 75 -23 96 -40 38 -30 -35 5
-43 4 -43 -8 0 -9 -4 -17 -9 -19 -19 -6 -241 -182 -241 -189 0 -5 12 -4 27 2
25 9 24 6 -14 -33 -24 -24 -43 -51 -43 -61 0 -11 -8 -17 -22 -17 -13 -1 -34
-7 -48 -15 -35 -20 -57 -20 -40 0 7 8 8 15 3 15 -18 0 -103 -60 -279 -197 -99
-76 -199 -151 -224 -168 -45 -30 -60 -41 -83 -60 -7 -6 -33 -26 -60 -45 -26
-18 -47 -37 -47 -42 0 -4 -6 -8 -13 -8 -7 0 -17 -10 -22 -22 -6 -13 -29 -32
-52 -43 -22 -11 -56 -32 -75 -48 -18 -15 -79 -62 -134 -105 -140 -106 -366
-282 -384 -299 -8 -7 -58 -46 -110 -85 -89 -67 -138 -104 -168 -129 -7 -6 -77
-60 -155 -121 -78 -61 -167 -132 -197 -158 -30 -26 -60 -49 -66 -51 -5 -2 -76
-55 -157 -118 l-147 -114 0 -2184 0 -2183 1035 0 1035 0 0 63 0 62 -185 185
-185 185 0 545 0 545 -263 263 c-191 191 -268 262 -285 262 -62 0 -87 63 -37
96 41 27 94 -9 82 -56 -3 -13 69 -92 264 -286 l269 -269 0 -545 0 -545 185
-185 185 -185 0 -67 0 -68 165 0 165 0 0 193 0 192 290 290 290 290 0 525 0
525 220 220 c206 206 219 221 222 259 2 33 8 43 30 54 22 10 32 10 50 1 30
-16 38 -28 38 -61 0 -34 -39 -63 -73 -54 -19 5 -56 -28 -244 -217 l-223 -222
0 -525 0 -525 -285 -285 -285 -285 0 -187 0 -188 145 0 145 0 0 80 c0 67 -4
86 -22 110 -18 25 -20 34 -10 54 15 33 47 42 77 22 32 -21 34 -70 5 -86 -18
-9 -20 -21 -20 -95 l0 -85 3076 0 c2607 0 3075 2 3065 14 -15 18 -3 46 20 46
25 0 35 -26 19 -45 -11 -13 6 -15 140 -15 134 0 151 2 140 15 -17 20 -5 45 20
45 25 0 37 -25 20 -45 -11 -13 6 -15 141 -14 85 0 148 3 142 6 -18 7 -16 42 3
50 8 3 23 -1 31 -10 13 -13 14 -19 3 -31 -11 -14 4 -16 141 -15 85 0 148 3
142 6 -18 7 -16 42 3 50 8 3 23 -1 31 -10 13 -13 14 -19 3 -31 -11 -14 2 -16
128 -16 l141 0 -2 27 c-1 20 5 30 23 40 14 7 19 13 12 13 -16 0 -14 83 3 125
19 47 82 108 105 102 11 -3 18 -1 14 4 -3 5 1 9 8 10 7 0 27 2 45 5 18 2 35
-1 38 -6 3 -6 12 -10 20 -10 26 0 105 -61 105 -81 0 -11 7 -22 15 -25 11 -4
13 -20 11 -62 -4 -54 -11 -102 -21 -129 -3 -10 24 -13 115 -13 l120 0 -1 2218
c-1 1219 -5 2200 -9 2179 -10 -52 -18 -56 -15 -7 1 22 -2 40 -6 40 -5 0 -9 6
-9 14 0 8 -95 112 -211 230 l-211 216 -402 0 -401 0 -135 135 -135 135 -355 0
c-344 0 -356 -1 -368 -20 -18 -30 -67 -27 -88 5 -36 55 32 111 80 66 22 -21
29 -21 382 -21 l359 0 135 -135 135 -135 400 0 400 -1 228 -224 227 -224 0
274 c0 266 -1 275 -19 275 -23 0 -51 36 -51 66 0 24 29 54 53 54 15 0 17 13
17 100 l0 100 -83 0 c-71 0 -84 -3 -95 -20 -13 -22 -43 -26 -73 -10 -22 12
-27 68 -7 88 19 19 63 14 83 -8 15 -17 31 -20 97 -20 l78 0 0 125 0 125 -168
0 -167 0 -180 -180 -180 -180 -185 0 -185 0 -140 140 -140 140 -594 0 -594 0
-23 -25 c-43 -47 -114 -22 -114 41 0 53 86 75 116 29 l16 -25 606 0 606 0 141
-140 142 -140 163 0 164 0 185 185 186 185 173 0 172 0 -2 2578 c-1 1417 -4
2515 -5 2440 l-4 -137 -32 -19 c-48 -29 -79 -33 -134 -17 -136 40 -168 197
-59 287 20 17 -37 18 -1111 18 l-1131 0 29 -31 c16 -17 33 -48 39 -69 9 -33 7
-47 -12 -90 -19 -43 -30 -54 -72 -75 -100 -48 -193 -6 -222 101 -9 35 -8 47 7
79 11 22 29 49 41 62 l21 23 -4076 0 -4077 0 0 -805z m497 769 c-3 -3 -12 -4
-19 -1 -8 3 -5 6 6 6 11 1 17 -2 13 -5z m917 -706 c-5 -8 2 -9 27 -5 l34 7
-25 -20 c-14 -11 -53 -39 -87 -62 -35 -23 -63 -44 -63 -48 0 -3 55 -11 123
-18 207 -21 526 -52 647 -62 191 -17 313 -34 293 -41 -14 -5 -6 -10 32 -23
l50 -16 -110 6 c-60 3 -252 19 -426 35 -386 35 -599 46 -599 31 0 -6 -15 -8
-39 -5 -30 4 -48 0 -74 -16 -19 -11 -38 -21 -41 -21 -15 0 50 48 69 52 20 4
20 4 -1 10 -13 3 -41 -7 -80 -30 -176 -104 -364 -212 -370 -212 -5 0 11 14 34
31 23 17 42 35 42 41 0 7 -4 7 -13 0 -19 -16 -69 -34 -62 -22 3 6 12 10 20 10
7 0 15 3 17 8 2 4 63 47 136 96 72 49 132 93 132 97 0 3 -37 13 -82 20 -83 14
-83 14 -43 23 22 5 82 10 132 12 l93 3 112 65 c115 66 135 75 122 54z m766
-399 c-14 -11 -79 -55 -145 -98 -66 -43 -133 -91 -149 -107 l-28 -29 31 -3
c18 -2 38 2 46 8 8 7 40 8 92 4 l79 -7 66 42 c36 22 70 41 77 41 22 0 10 -18
-30 -45 -22 -16 -45 -37 -50 -47 -9 -16 -5 -18 33 -18 27 0 38 -3 30 -9 -21
-13 123 -24 147 -12 11 6 28 11 38 10 10 0 13 -3 6 -6 -24 -9 -14 -33 13 -33
25 0 339 -45 419 -60 30 -6 33 -8 13 -9 -33 -1 -48 -21 -16 -21 13 0 30 -5 38
-11 17 -12 19 -12 -342 21 -224 21 -240 21 -279 6 -41 -16 -67 -14 -39 4 29
18 -4 25 -108 24 -68 -1 -96 1 -77 6 17 4 23 8 15 9 -8 1 -41 -7 -72 -16 -39
-12 -58 -23 -58 -34 0 -13 17 -18 83 -25 53 -5 70 -9 47 -12 -20 -1 -62 1 -95
6 -37 6 -69 6 -84 0 -18 -6 -28 -5 -40 7 -14 13 -14 15 1 15 23 0 78 33 78 47
0 6 6 14 13 16 6 3 -10 6 -36 6 -27 1 -46 5 -43 10 3 5 -20 11 -52 14 -46 4
-67 0 -109 -20 -29 -13 -53 -29 -53 -34 0 -5 -6 -9 -12 -9 -7 0 5 16 26 35 22
19 37 37 34 40 -3 3 -61 12 -129 20 -307 36 -782 106 -794 116 -5 6 -4 9 4 9
7 0 9 5 6 10 -4 6 14 10 48 10 59 0 536 -45 631 -60 34 -5 123 -14 200 -21
162 -14 175 -11 275 60 75 54 261 171 270 171 3 0 -5 -10 -19 -21z m2455 -313
c182 -33 366 -103 530 -200 52 -31 96 -60 99 -65 5 -8 -129 -181 -140 -181 -2
0 -21 11 -42 24 -179 113 -461 206 -626 206 -99 0 -96 -4 -96 128 l0 115 98
-6 c53 -4 133 -13 177 -21z m1815 -90 l0 -114 -82 -7 c-180 -14 -360 -60 -490
-126 -122 -62 -282 -174 -365 -257 -103 -103 -161 -191 -272 -412 -96 -191
-154 -290 -209 -360 -47 -60 -104 -120 -114 -120 -4 0 -8 83 -8 184 0 167 -2
185 -17 190 -20 5 -218 23 -273 24 -19 1 -54 4 -77 8 -24 3 -43 3 -43 0 0 -14
45 -95 93 -166 60 -89 199 -235 267 -282 l49 -33 1 -137 0 -137 -52 30 c-262
154 -476 398 -604 690 -33 74 -42 104 -33 109 8 6 6 9 -7 13 -10 2 47 5 128 6
114 1 171 -4 250 -20 57 -11 123 -24 147 -29 23 -4 46 -12 50 -18 11 -18 133
-33 147 -19 7 7 45 77 87 157 132 255 210 377 304 473 l67 67 -30 28 c-17 15
-23 21 -14 15 9 -7 21 -13 27 -13 6 0 13 -5 15 -11 2 -7 59 27 128 76 276 193
574 298 863 304 l67 1 0 -114z m-4845 24 c-3 -5 -11 -10 -16 -10 -6 0 -7 5 -4
10 3 6 11 10 16 10 6 0 7 -4 4 -10z m-1375 -10 c-8 -5 -19 -10 -25 -10 -5 0
-3 5 5 10 8 5 20 10 25 10 6 0 3 -5 -5 -10z m1528 3 c-10 -2 -28 -2 -40 0 -13
2 -5 4 17 4 22 1 32 -1 23 -4z m452 -27 c0 -2 -51 -38 -112 -80 -62 -42 -171
-117 -242 -166 -128 -87 -206 -136 -206 -127 0 3 33 29 73 59 67 50 113 81
325 217 45 30 82 58 82 62 0 5 8 9 19 9 10 0 24 7 31 15 11 14 30 21 30 11z
m7810 -27 c51 -23 86 -53 105 -90 10 -18 52 -44 140 -88 70 -35 129 -69 132
-77 3 -8 9 -14 14 -14 23 0 97 -100 91 -122 -1 -5 2 -8 8 -8 19 0 28 -66 15
-115 -13 -54 -34 -68 -95 -64 -64 3 -69 1 -65 -28 4 -25 -9 -104 -23 -143 -3
-8 -6 -21 -8 -29 -1 -8 -8 -17 -15 -21 -6 -4 -9 -13 -5 -18 4 -6 -7 -23 -23
-38 -17 -15 -33 -35 -37 -46 -3 -10 -10 -16 -15 -13 -5 4 -9 2 -9 -3 0 -12
-31 -47 -50 -56 -23 -11 -57 -31 -71 -43 -8 -5 -21 -10 -29 -10 -24 -1 -45 -7
-52 -18 -9 -13 -218 -10 -227 3 -3 5 -30 15 -58 22 -33 7 -50 16 -46 23 4 6
-2 8 -15 5 -14 -4 -22 -2 -22 6 0 7 -11 18 -25 24 -14 7 -28 19 -31 27 -4 8
-13 15 -21 15 -8 0 -12 4 -9 9 3 5 -1 14 -9 21 -8 7 -15 19 -15 26 0 8 -5 14
-10 14 -6 0 -15 12 -21 28 -6 15 -16 39 -24 55 -8 17 -10 27 -3 27 6 0 5 7 -3
16 -14 18 -21 142 -9 159 4 6 13 34 21 63 7 28 16 52 21 52 4 0 8 7 8 15 0 8
4 15 10 15 24 0 -5 29 -35 34 -18 4 -36 13 -39 21 -8 21 2 59 19 71 9 7 15 16
13 20 -4 13 25 54 38 54 7 0 14 7 18 15 3 8 12 15 21 15 8 0 15 5 15 10 0 6 6
10 13 10 14 0 32 19 60 63 18 28 56 55 142 100 63 34 148 36 215 6z m-8185 -7
c-6 -5 -23 -14 -40 -21 -30 -13 -30 -13 -11 8 11 12 28 21 40 21 11 0 16 -4
11 -8z m3476 -169 c13 -16 12 -17 -3 -4 -10 7 -18 15 -18 17 0 8 8 3 21 -13z
m1139 -211 l0 -119 -57 -13 c-290 -64 -597 -275 -758 -521 -35 -52 -97 -164
-139 -247 l-76 -152 -136 0 -136 0 36 63 c20 34 70 127 110 207 127 255 189
343 344 491 101 97 239 196 366 263 38 20 74 40 80 44 18 14 125 50 196 66 64
15 148 33 163 35 4 1 7 -52 7 -117z m-5093 48 c-14 -20 -14 -24 1 -40 9 -10
37 -24 62 -31 l45 -13 -90 -8 c-165 -15 -180 -16 -212 -23 -38 -8 -43 3 -13
30 11 10 18 20 16 22 -2 2 -27 12 -57 23 l-54 20 56 -6 c46 -5 71 -1 135 21
44 15 86 31 94 35 23 13 34 -6 17 -30z m3163 -5 c52 -8 124 -24 160 -35 89
-29 258 -113 295 -147 17 -15 26 -25 21 -21 -5 4 -31 -31 -59 -80 -27 -48 -53
-91 -57 -95 -4 -5 -46 14 -93 41 -111 63 -229 102 -337 110 l-85 7 -3 118 -3
117 33 0 c18 0 76 -7 128 -15z m-2737 -132 c-7 -2 -19 -2 -25 0 -7 3 -2 5 12
5 14 0 19 -2 13 -5z m3262 -103 c10 -11 16 -20 13 -20 -3 0 -13 9 -23 20 -10
11 -16 20 -13 20 3 0 13 -9 23 -20z m1405 -283 l0 -123 -67 -33 c-159 -78
-333 -218 -444 -357 l-51 -64 -129 0 c-71 0 -129 2 -129 5 0 13 36 75 92 157
95 143 265 299 443 408 61 38 257 129 278 130 4 0 7 -55 7 -123z m-2451 -99
c45 -165 116 -313 215 -448 59 -81 193 -216 251 -252 27 -17 59 -40 70 -49 11
-10 99 -58 195 -107 l175 -89 3 -137 3 -137 -73 41 c-40 22 -131 70 -203 107
-251 127 -374 214 -503 355 -31 35 -63 69 -70 77 -31 32 -146 218 -183 294
-47 97 -118 310 -126 379 l-6 48 115 0 115 0 22 -82z m3001 33 c0 -64 -24
-200 -50 -281 -26 -79 -101 -234 -133 -274 l-24 -29 -96 54 c-53 30 -97 57
-97 61 0 4 18 35 40 69 68 106 130 305 130 420 l0 29 115 0 115 0 0 -49z m477
-68 c-14 -247 -102 -513 -242 -731 l-47 -72 -81 67 c-45 37 -86 70 -91 74 -4
4 13 42 39 85 60 98 96 178 134 296 31 97 61 271 61 352 l0 46 117 0 116 0 -6
-117z m-5207 -3 c0 -5 -8 -10 -17 -10 -15 0 -16 2 -3 10 19 12 20 12 20 0z
m-130 -14 c0 -2 -8 -10 -17 -17 -16 -13 -17 -12 -4 4 13 16 21 21 21 13z
m-893 -22 c-3 -3 -12 -4 -19 -1 -8 3 -5 6 6 6 11 1 17 -2 13 -5z m-277 -34 c0
-5 -5 -10 -11 -10 -5 0 -7 5 -4 10 3 6 8 10 11 10 2 0 4 -4 4 -10z m1040 -114
c0 -2 -7 -6 -15 -10 -8 -3 -15 -1 -15 4 0 6 7 10 15 10 8 0 15 -2 15 -4z
m-1673 -112 c-3 -3 -12 -4 -19 -1 -8 3 -5 6 6 6 11 1 17 -2 13 -5z m2243 -4
c13 -8 13 -10 -2 -10 -9 0 -20 5 -23 10 -8 13 5 13 25 0z m-866 -24 c-3 -7
-16 -18 -29 -24 -20 -9 -23 -9 -18 4 5 12 25 26 50 33 1 1 0 -5 -3 -13z
m-1251 -3 c-7 -2 -19 -2 -25 0 -7 3 -2 5 12 5 14 0 19 -2 13 -5z m2250 0 c-7
-2 -19 -2 -25 0 -7 3 -2 5 12 5 14 0 19 -2 13 -5z m-1946 -69 c-3 -3 -12 -4
-19 -1 -8 3 -5 6 6 6 11 1 17 -2 13 -5z m2280 0 c-3 -3 -12 -4 -19 -1 -8 3 -5
6 6 6 11 1 17 -2 13 -5z m136 -31 c-7 -2 -21 -2 -30 0 -10 3 -4 5 12 5 17 0
24 -2 18 -5z m134 -19 c-3 -3 -12 -4 -19 -1 -8 3 -5 6 6 6 11 1 17 -2 13 -5z
m3091 -34 c42 -22 126 -63 186 -92 60 -29 117 -59 125 -66 9 -7 70 -48 136
-91 344 -225 597 -688 622 -1138 l6 -113 -115 0 -115 0 -7 97 c-23 324 -152
608 -381 839 -116 117 -197 170 -456 300 -193 96 -319 177 -394 253 l-49 51
183 0 183 0 76 -40z m-4943 -20 c-3 -5 -11 -10 -16 -10 -6 0 -7 5 -4 10 3 6
11 10 16 10 6 0 7 -4 4 -10z m72 -17 c-20 -14 -37 -30 -37 -35 0 -4 -8 -8 -17
-8 -15 0 -15 2 2 15 11 8 31 24 45 35 14 10 29 19 35 20 5 0 -7 -12 -28 -27z
m-115 -10 c-6 -2 -10 -9 -7 -14 4 -5 -1 -6 -10 -2 -13 5 -14 7 -3 14 7 5 18 8
23 8 6 0 4 -3 -3 -6z m3953 -3 c-3 -5 -10 -10 -16 -10 -5 0 -9 5 -9 10 0 6 7
10 16 10 8 0 12 -4 9 -10z m-4002 -7 c-7 -2 -19 -2 -25 0 -7 3 -2 5 12 5 14 0
19 -2 13 -5z m2537 -33 c0 -13 -11 -13 -30 0 -12 8 -11 10 8 10 12 0 22 -4 22
-10z m-2357 -7 c-7 -2 -19 -2 -25 0 -7 3 -2 5 12 5 14 0 19 -2 13 -5z m156
-29 c17 -4 31 -10 31 -15 0 -13 -23 -11 -61 6 -36 15 -22 19 30 9z m190 -43
c31 -11 76 -24 101 -30 44 -10 44 -10 5 -5 -47 5 -121 21 -185 39 -44 13 -45
13 -11 14 19 1 59 -8 90 -18z m-252 3 c-3 -3 -12 -4 -19 -1 -8 3 -5 6 6 6 11
1 17 -2 13 -5z m4488 -160 c333 -169 476 -280 640 -499 132 -176 247 -434 280
-633 l7 -43 -117 3 -118 3 -27 95 c-33 117 -60 183 -111 278 -81 151 -214 310
-337 400 -59 43 -243 146 -397 222 l-50 25 -3 138 -3 138 53 -31 c29 -17 112
-60 183 -96z m-5518 100 c-3 -3 -12 -4 -19 -1 -8 3 -5 6 6 6 11 1 17 -2 13 -5z
m1528 -4 c27 -7 27 -8 5 -8 -14 0 -36 4 -50 8 -20 6 -21 8 -5 8 11 0 34 -4 50
-8z m-1472 -7 c-7 -2 -21 -2 -30 0 -10 3 -4 5 12 5 17 0 24 -2 18 -5z m3974 1
c-3 -3 -12 -4 -19 -1 -8 3 -5 6 6 6 11 1 17 -2 13 -5z m-3870 -30 c-3 -3 -12
-4 -19 -1 -8 3 -5 6 6 6 11 1 17 -2 13 -5z m412 -17 c-46 -31 -67 -43 -54 -30
22 21 68 53 78 53 5 0 -5 -10 -24 -23z m1098 17 c-3 -3 -12 -4 -19 -1 -8 3 -5
6 6 6 11 1 17 -2 13 -5z m-1340 -40 c-3 -3 -12 -4 -19 -1 -8 3 -5 6 6 6 11 1
17 -2 13 -5z m3 -75 c-27 -21 -71 -47 -55 -32 19 18 68 53 74 53 3 0 -5 -9
-19 -21z m110 7 c0 -2 -7 -7 -16 -10 -8 -3 -12 -2 -9 4 6 10 25 14 25 6z m342
-41 c101 -25 215 -54 253 -66 39 -11 84 -24 100 -29 17 -4 23 -8 15 -9 -17 -1
-142 28 -350 82 -216 56 -249 66 -223 66 13 1 105 -19 205 -44z m1365 39 c-3
-3 -12 -4 -19 -1 -8 3 -5 6 6 6 11 1 17 -2 13 -5z m163 -34 c22 -7 20 -8 -15
-9 -22 0 -47 4 -55 9 -11 7 -8 9 15 9 17 -1 41 -5 55 -9z m116 -25 c27 -14 27
-15 7 -15 -13 0 -23 -4 -23 -10 0 -5 -7 -10 -16 -10 -10 0 -14 6 -11 14 3 7 0
19 -6 25 -17 17 15 14 49 -4z m-2176 2 c0 -2 -20 -18 -45 -36 -25 -18 -45 -29
-45 -24 1 4 20 20 43 35 43 28 47 30 47 25z m95 -7 c-3 -5 -12 -10 -18 -10 -7
0 -6 4 3 10 19 12 23 12 15 0z m2233 -21 c-2 -6 -8 -10 -13 -10 -5 0 -11 4
-13 10 -2 6 4 11 13 11 9 0 15 -5 13 -11z m172 1 c0 -5 -7 -10 -15 -10 -8 0
-15 5 -15 10 0 6 7 10 15 10 8 0 15 -4 15 -10z m160 0 c0 -5 -4 -10 -10 -10
-5 0 -10 5 -10 10 0 6 5 10 10 10 6 0 10 -4 10 -10z m170 0 c0 -5 -4 -10 -10
-10 -5 0 -10 5 -10 10 0 6 5 10 10 10 6 0 10 -4 10 -10z m-2770 -4 c0 -2 -12
-11 -27 -20 l-28 -17 24 20 c23 21 31 25 31 17z m-65 -46 c-3 -5 -12 -10 -18
-10 -7 0 -6 4 3 10 19 12 23 12 15 0z m-40 -30 c-3 -5 -15 -15 -26 -20 -15 -8
-19 -7 -19 4 0 8 10 17 23 19 12 2 23 5 25 6 2 0 0 -3 -3 -9z m2662 -6 c-3 -3
-12 -4 -19 -1 -8 3 -5 6 6 6 11 1 17 -2 13 -5z m-2530 -40 c-3 -3 -12 -4 -19
-1 -8 3 -5 6 6 6 11 1 17 -2 13 -5z m2486 -1 c-7 -2 -21 -2 -30 0 -10 3 -4 5
12 5 17 0 24 -2 18 -5z m432 -34 c0 -7 -8 -15 -17 -17 -18 -3 -25 18 -11 32
10 10 28 1 28 -15z m-1355 1 c0 -5 -4 -10 -10 -10 -5 0 -10 5 -10 10 0 6 5 10
10 10 6 0 10 -4 10 -10z m170 -5 c0 -9 -6 -12 -15 -9 -8 4 -12 10 -9 15 8 14
24 10 24 -6z m-1577 -2 c-7 -2 -19 -2 -25 0 -7 3 -2 5 12 5 14 0 19 -2 13 -5z
m2925 -100 c-10 -2 -26 -2 -35 0 -10 3 -2 5 17 5 19 0 27 -2 18 -5z m-2915
-30 c-7 -2 -19 -2 -25 0 -7 3 -2 5 12 5 14 0 19 -2 13 -5z m1399 -28 c0 -5 -5
-11 -11 -13 -6 -2 -11 4 -11 13 0 9 5 15 11 13 6 -2 11 -8 11 -13z m168 0 c0
-8 -4 -15 -9 -15 -13 0 -22 16 -14 24 11 11 23 6 23 -9z m170 0 c0 -8 -4 -15
-9 -15 -13 0 -22 16 -14 24 11 11 23 6 23 -9z m170 -1 c0 -9 -5 -14 -12 -12
-18 6 -21 28 -4 28 9 0 16 -7 16 -16z m164 -5 c-3 -5 -10 -7 -15 -3 -5 3 -7
10 -3 15 3 5 10 7 15 3 5 -3 7 -10 3 -15z m168 6 c0 -5 -5 -11 -11 -13 -6 -2
-11 4 -11 13 0 9 5 15 11 13 6 -2 11 -8 11 -13z m-1475 -51 c-3 -3 -12 -4 -19
-1 -8 3 -5 6 6 6 11 1 17 -2 13 -5z m629 -121 c-10 -10 -19 5 -10 18 6 11 8
11 12 0 2 -7 1 -15 -2 -18z m174 12 c0 -8 -4 -15 -10 -15 -5 0 -10 7 -10 15 0
8 5 15 10 15 6 0 10 -7 10 -15z m170 0 c0 -8 -4 -15 -9 -15 -13 0 -22 16 -14
24 11 11 23 6 23 -9z m170 -6 c0 -5 -7 -9 -15 -9 -15 0 -20 12 -9 23 8 8 24
-1 24 -14z m170 0 c0 -5 -7 -9 -15 -9 -15 0 -20 12 -9 23 8 8 24 -1 24 -14z
m161 -2 c-13 -13 -26 -3 -16 12 3 6 11 8 17 5 6 -4 6 -10 -1 -17z m506 -3 c-9
-9 -28 6 -21 18 4 6 10 6 17 -1 6 -6 8 -13 4 -17z m-1950 -20 c-3 -3 -12 -4
-19 -1 -8 3 -5 6 6 6 11 1 17 -2 13 -5z m100 -30 c-3 -3 -12 -4 -19 -1 -8 3
-5 6 6 6 11 1 17 -2 13 -5z m50 -10 c-3 -3 -12 -4 -19 -1 -8 3 -5 6 6 6 11 1
17 -2 13 -5z m550 -21 c3 -7 -3 -9 -16 -6 -12 3 -21 10 -21 15 0 13 32 6 37
-9z m-450 -9 c-3 -3 -12 -4 -19 -1 -8 3 -5 6 6 6 11 1 17 -2 13 -5z m96 -31
c-7 -2 -19 -2 -25 0 -7 3 -2 5 12 5 14 0 19 -2 13 -5z m605 -31 c2 -7 -6 -12
-17 -12 -21 0 -27 11 -14 24 9 9 26 2 31 -12z m-348 -8 c0 -8 -4 -12 -10 -9
-5 3 -10 10 -10 16 0 5 5 9 10 9 6 0 10 -7 10 -16z m170 6 c0 -5 -4 -10 -10
-10 -5 0 -10 5 -10 10 0 6 5 10 10 10 6 0 10 -4 10 -10z m338 -1 c-2 -6 -8
-10 -13 -10 -5 0 -11 4 -13 10 -2 6 4 11 13 11 9 0 15 -5 13 -11z m170 0 c-2
-6 -8 -10 -13 -10 -5 0 -11 4 -13 10 -2 6 4 11 13 11 9 0 15 -5 13 -11z m502
1 c0 -5 -4 -10 -10 -10 -5 0 -10 5 -10 10 0 6 5 10 10 10 6 0 10 -4 10 -10z
m-1287 -7 c-7 -2 -19 -2 -25 0 -7 3 -2 5 12 5 14 0 19 -2 13 -5z m104 -29 c-3
-3 -12 -4 -19 -1 -8 3 -5 6 6 6 11 1 17 -2 13 -5z m683 -44 c18 -12 2 -12 -25
0 -13 6 -15 9 -5 9 8 0 22 -4 30 -9z m-340 -85 c0 -8 -4 -15 -9 -15 -13 0 -22
16 -14 24 11 11 23 6 23 -9z m170 7 c0 -13 -12 -22 -22 -16 -10 6 -1 24 13 24
5 0 9 -4 9 -8z m161 -5 c-1 -12 -15 -9 -19 4 -3 6 1 10 8 8 6 -3 11 -8 11 -12z
m509 -2 c0 -8 -4 -15 -9 -15 -13 0 -22 16 -14 24 11 11 23 6 23 -9z m-940 -18
c0 -2 -15 -13 -32 -26 l-33 -22 28 25 c26 24 37 31 37 23z m-90 -71 c0 -2 -7
-7 -16 -10 -8 -3 -12 -2 -9 4 6 10 25 14 25 6z m3230 -251 c13 -14 21 -25 18
-25 -2 0 -15 11 -28 25 -13 14 -21 25 -18 25 2 0 15 -11 28 -25z m193 -120
c82 -40 211 -75 271 -75 88 0 86 2 86 -127 l0 -116 -80 7 c-135 12 -274 51
-395 111 -60 30 -121 63 -134 73 l-24 20 57 101 57 101 45 -30 c24 -17 77 -46
117 -65z m-452 -292 c13 -16 12 -17 -3 -4 -10 7 -18 15 -18 17 0 8 8 3 21 -13z
m214 -131 c139 -69 338 -123 513 -137 l82 -7 0 -109 c0 -87 -3 -111 -15 -115
-8 -3 -69 -1 -136 5 -189 18 -379 71 -544 154 -92 45 -215 123 -215 135 0 4
29 43 65 87 36 44 63 85 61 92 -3 7 25 -8 62 -31 37 -24 94 -57 127 -74z
m-3595 48 c0 -5 -4 -10 -10 -10 -5 0 -10 5 -10 10 0 6 5 10 10 10 6 0 10 -4
10 -10z m40 -190 c0 -5 -4 -10 -10 -10 -5 0 -10 5 -10 10 0 6 5 10 10 10 6 0
10 -4 10 -10z m-10 -30 c0 -5 -6 -10 -14 -10 -8 0 -18 5 -21 10 -3 6 3 10 14
10 12 0 21 -4 21 -10z m6474 -425 c23 -24 28 -25 152 -25 l129 0 185 -185 185
-185 351 0 c338 0 352 1 369 20 42 47 118 5 96 -53 -14 -37 -55 -46 -85 -18
-22 21 -29 21 -382 21 l-359 0 -185 185 -185 185 -124 0 c-119 0 -125 -1 -147
-25 -30 -33 -67 -32 -93 1 -27 34 -26 50 4 79 31 32 60 32 89 0z m-5067 -380
c123 -55 153 -231 56 -332 l-36 -38 52 -97 52 -98 -98 0 -98 0 -41 83 c-37 75
-43 82 -72 85 l-32 3 0 -85 0 -86 -85 0 -85 0 -1 238 c0 130 -1 260 -1 289 0
28 3 57 7 63 5 9 50 10 169 5 137 -6 169 -10 213 -30z m-575 -8 c81 -47 119
-138 98 -232 -15 -67 -52 -120 -101 -145 -31 -16 -154 -39 -211 -40 -5 0 -8
-31 -8 -70 l0 -70 -85 0 -85 0 0 296 0 296 173 -4 c167 -3 173 -4 219 -31z
m1230 -202 c49 -126 100 -258 113 -292 l24 -63 -93 0 -93 0 -12 40 -12 40
-103 0 -104 0 -16 -40 -16 -40 -89 0 -90 0 13 38 c22 60 208 536 213 545 3 4
43 6 90 5 l85 -3 90 -230z m378 130 l0 -105 34 0 c50 0 76 28 111 121 l32 84
92 3 c50 1 91 0 91 -3 0 -3 -16 -44 -35 -92 -19 -48 -35 -92 -35 -98 0 -6 -14
-33 -30 -59 l-31 -48 76 -139 c41 -76 75 -141 75 -144 0 -3 -44 -5 -98 -5
l-98 0 -54 110 -54 110 -38 0 -38 0 0 -110 0 -110 -85 0 -84 0 -3 285 c-2 157
-1 290 0 295 2 6 41 10 88 10 l84 0 0 -105z m960 25 l0 -80 -90 0 -90 0 0
-100 0 -100 28 -10 c15 -6 34 -14 42 -19 9 -5 30 -12 48 -16 18 -3 30 -11 26
-16 -3 -5 -13 -5 -24 1 -19 10 -55 8 -97 -5 -21 -7 -23 -13 -23 -86 l0 -79
-85 0 -84 0 -3 111 -3 111 -90 33 c-151 55 -153 57 -144 83 11 28 16 28 124
-8 50 -16 96 -30 103 -30 8 0 12 20 12 65 l0 65 -90 0 -90 0 0 80 0 80 265 0
265 0 0 -80z m260 -215 l0 -295 -90 0 -91 0 2 295 2 295 88 0 89 0 0 -295z
m290 190 l0 -105 38 0 c57 0 76 20 112 120 l32 90 93 0 93 0 -40 -102 c-21
-56 -51 -125 -65 -154 l-26 -53 43 -78 c23 -43 58 -106 77 -140 l35 -63 -101
0 -101 0 -55 110 -55 110 -40 0 -40 0 0 -110 0 -110 -85 0 -85 0 0 295 0 295
85 0 85 0 0 -105z m642 -96 c3 -197 3 -201 27 -220 35 -28 92 -25 122 7 23 25
24 30 27 220 l4 194 85 0 85 0 -4 -207 c-4 -229 -12 -266 -74 -326 -53 -53
-81 -62 -184 -62 -78 0 -102 4 -135 22 -51 27 -79 57 -104 113 -19 41 -21 65
-21 253 l0 207 84 0 85 0 3 -201z m703 66 c53 -74 99 -135 103 -135 4 1 49 61
101 135 l94 135 74 0 73 0 0 -295 0 -295 -85 0 -85 0 0 146 c0 166 1 165 -71
60 l-44 -66 -57 0 -57 0 -55 77 -56 77 0 -147 0 -147 -85 0 -85 0 0 295 0 295
70 0 69 0 96 -135z m-5317 -88 c2 -11 -3 -17 -17 -17 -23 0 -35 15 -26 31 10
15 39 6 43 -14z m-751 -109 c40 -38 30 -96 -23 -128 -26 -17 -37 -19 -53 -10
-47 25 -55 96 -16 135 30 31 62 32 92 3z m4048 -98 c3 -5 -1 -10 -10 -10 -9 0
-13 5 -10 10 3 6 8 10 10 10 2 0 7 -4 10 -10z m-4208 -45 c87 -33 216 -106
205 -117 -18 -18 -299 113 -286 134 7 11 5 11 81 -17z m581 -367 c-4 -31 -48
-39 -48 -10 0 20 12 30 38 31 8 1 12 -8 10 -21z m3159 -70 c6 -7 29 -58 51
-113 22 -55 48 -117 56 -137 16 -37 16 -38 -4 -38 -15 0 -26 11 -36 35 -13 33
-17 35 -62 35 -68 0 -91 -9 -108 -41 -8 -17 -23 -29 -34 -29 -17 0 -13 15 37
138 56 137 69 162 83 162 4 0 12 -6 17 -12z m350 -22 c13 -15 23 -34 23 -42 0
-23 -30 -16 -52 11 -14 19 -29 25 -57 25 -42 0 -61 -14 -61 -46 0 -18 10 -26
48 -39 26 -10 60 -22 76 -28 36 -13 57 -60 44 -97 -15 -44 -76 -67 -136 -51
-42 12 -66 33 -76 69 -10 32 16 29 52 -8 46 -45 122 -36 122 14 0 31 -13 40
-81 60 -67 19 -89 41 -89 88 0 56 36 80 114 74 39 -3 55 -9 73 -30z m231 23
c108 -23 151 -138 87 -236 -24 -36 -74 -53 -155 -53 l-70 0 0 143 c0 79 3 147
7 150 10 10 76 8 131 -4z m3607 -325 c68 -16 141 -85 176 -164 42 -94 -19
-241 -124 -297 -32 -17 -157 -34 -157 -22 0 4 -22 9 -50 13 -89 12 -180 125
-182 226 0 34 19 108 32 120 3 3 12 18 20 33 17 34 82 74 148 92 48 13 83 13
137 -1z m1501 -221 c-8 -20 -50 -33 -80 -25 -25 7 -25 8 -11 35 9 19 10 25 2
21 -7 -4 -4 2 6 13 9 11 17 24 17 30 0 6 13 26 30 44 16 19 31 39 32 44 1 6 4
-26 5 -69 2 -44 2 -85 -1 -93z m-6042 98 c44 -41 40 -106 -9 -146 l-25 -21 35
-52 36 -52 -25 0 c-18 0 -32 13 -56 50 -28 44 -36 50 -66 50 l-34 0 0 -50 c0
-43 -3 -50 -20 -50 -19 0 -20 7 -20 151 l0 152 80 -5 c65 -4 85 -9 104 -27z
m266 -73 c86 -208 82 -198 60 -198 -13 0 -25 12 -34 35 l-15 35 -70 0 -71 0
-14 -35 c-10 -23 -22 -35 -35 -35 -18 0 -14 14 42 150 44 109 66 150 78 150
11 0 29 -31 59 -102z m384 81 c33 -26 35 -71 3 -103 -13 -13 -30 -25 -38 -28
-10 -4 -6 -14 18 -39 34 -34 32 -35 48 16 2 8 11 15 20 15 18 0 20 -41 4 -72
-9 -16 -7 -24 12 -44 l22 -24 -24 0 c-14 0 -30 5 -37 12 -8 8 -15 8 -25 0 -26
-22 -90 -24 -127 -5 -54 28 -58 96 -8 134 20 15 20 18 4 40 -17 24 -21 66 -8
85 25 37 96 44 136 13z m411 7 c64 -27 77 -108 24 -157 l-30 -28 30 -45 c37
-53 37 -56 11 -56 -13 0 -31 18 -52 50 -28 43 -38 50 -65 50 -33 0 -33 0 -33
-50 0 -43 -3 -50 -20 -50 -19 0 -20 7 -20 150 l0 150 60 0 c33 0 76 -6 95 -14z
m329 0 c32 -13 76 -63 76 -85 0 -21 -28 -11 -63 24 -74 74 -186 29 -187 -76 0
-56 25 -93 75 -109 46 -15 98 1 126 41 20 29 49 39 49 18 0 -6 -7 -23 -16 -39
-52 -86 -200 -85 -255 3 -27 42 -23 145 6 178 51 57 121 74 189 45z m-3397
-162 c-9 -9 -28 6 -21 18 4 6 10 6 17 -1 6 -6 8 -13 4 -17z m-174 -98 c7 -16
-1 -26 -20 -26 -7 0 -13 9 -13 20 0 23 25 27 33 6z m-107 -31 c20 -30 12 -70
-16 -85 -19 -10 -20 -21 -20 -293 l0 -282 -205 -205 -205 -205 0 -621 c0 -608
0 -621 20 -639 22 -20 27 -64 8 -83 -29 -29 -98 -1 -98 40 0 10 9 27 20 38 20
20 20 33 20 648 l0 627 205 205 205 205 0 277 c0 267 -1 278 -20 288 -52 28
-27 110 35 110 26 0 39 -6 51 -25z m6517 13 c7 -21 -12 -48 -34 -48 -22 0 -34
22 -25 45 7 18 53 20 59 3z m633 -3 c7 -18 -13 -45 -33 -45 -17 0 -27 24 -19
45 7 20 45 19 52 0z m318 -1 c7 -19 -10 -44 -31 -44 -17 0 -27 24 -19 45 7 20
42 19 50 -1z m316 1 c10 -12 10 -18 0 -30 -25 -30 -61 -7 -46 30 3 8 12 15 19
15 8 0 20 -7 27 -15z m324 -1 c8 -21 -11 -44 -36 -44 -21 0 -33 22 -24 45 7
20 52 19 60 -1z m-208 -97 c36 -5 94 -45 94 -64 -1 -22 -25 -55 -33 -46 -4 3
-7 -1 -7 -9 0 -16 -203 -218 -219 -218 -4 0 -16 -19 -26 -42 -9 -24 -21 -51
-26 -60 -5 -10 -9 -28 -9 -40 -1 -40 -33 -84 -98 -135 -73 -59 -130 -78 -204
-69 -63 8 -119 44 -166 105 -27 36 -33 52 -30 85 3 48 19 85 49 112 31 28 62
100 55 127 -4 18 2 30 24 51 16 14 36 26 44 26 8 0 18 5 21 10 3 6 30 10 58
10 63 1 137 14 146 27 11 15 104 79 161 110 54 29 86 33 166 20z m-7315 -128
c23 -23 19 -54 -12 -81 -17 -15 -19 -31 -19 -180 l0 -163 -105 -105 -105 -105
0 -192 c0 -192 0 -192 25 -217 44 -44 22 -106 -37 -106 -28 0 -68 30 -68 51 0
16 22 53 36 62 11 6 14 51 14 210 l0 202 110 110 110 110 0 157 c0 147 -1 158
-20 168 -14 7 -20 21 -20 45 0 54 52 73 91 34z m7519 -115 c0 -29 -24 -41 -45
-24 -19 16 -19 25 0 44 21 20 45 9 45 -20z m-1593 10 c3 -8 -2 -23 -11 -32
-15 -15 -17 -15 -32 0 -21 21 -11 48 16 48 11 0 23 -7 27 -16z m320 0 c3 -8
-2 -23 -11 -32 -15 -15 -17 -15 -32 0 -21 21 -11 48 16 48 11 0 23 -7 27 -16z
m320 0 c8 -21 -19 -46 -40 -38 -17 6 -23 35 -10 47 12 13 44 7 50 -9z m-8125
-51 c10 -9 18 -30 18 -47 0 -27 18 -49 120 -151 l120 -120 0 -105 c0 -94 2
-106 20 -118 29 -18 27 -76 -2 -96 -30 -21 -54 -20 -78 4 -27 27 -25 66 5 94
23 22 25 30 25 121 l0 98 -112 114 c-97 98 -116 113 -144 113 -23 0 -38 7 -48
22 -21 30 -20 44 4 68 24 24 47 25 72 3z m-1262 -119 c0 -17 -22 -14 -28 4 -2
7 3 12 12 12 9 0 16 -7 16 -16z m9384 -156 c13 -22 -14 -54 -38 -45 -16 6 -22
48 -9 61 11 11 35 3 47 -16z m630 6 c20 -19 20 -28 1 -44 -30 -25 -70 15 -45
45 16 19 25 19 44 -1z m326 -20 c0 -19 -5 -24 -24 -24 -29 0 -40 24 -20 44 20
20 44 9 44 -20z m-1595 1 c0 -22 -31 -33 -47 -17 -17 17 -1 44 24 40 15 -2 23
-10 23 -23z m320 0 c0 -22 -31 -33 -47 -17 -17 17 -1 44 24 40 15 -2 23 -10
23 -23z m319 -318 c9 -14 7 -21 -7 -32 -25 -18 -47 -9 -47 19 0 40 32 48 54
13z m315 9 c17 -20 3 -46 -25 -46 -39 0 -32 54 7 59 4 1 12 -5 18 -13z m321
-22 c0 -19 -5 -24 -25 -24 -20 0 -25 5 -25 24 0 13 6 26 13 29 22 7 37 -4 37
-29z m320 16 c8 -14 8 -26 0 -40 -12 -23 -15 -24 -39 -10 -26 14 -33 37 -15
55 21 21 41 19 54 -5z m-1595 -15 c0 -22 -31 -33 -47 -17 -17 17 -1 44 24 40
15 -2 23 -10 23 -23z m320 0 c0 -22 -31 -33 -47 -17 -17 17 -1 44 24 40 15 -2
23 -10 23 -23z m1374 -109 c113 -93 133 -118 129 -162 l-3 -38 -70 61 c-115
99 -175 162 -175 186 0 4 12 7 26 7 18 0 50 -19 93 -54z m-8012 -638 c50 -51
74 -68 95 -68 56 0 79 -66 33 -96 -41 -27 -94 9 -82 56 3 12 -18 40 -69 91
l-74 73 0 266 0 265 -135 -135 -135 -135 0 -336 0 -336 25 -23 c44 -41 23
-110 -33 -110 -60 0 -82 68 -37 110 l25 23 0 346 0 346 158 158 157 157 3
-292 2 -293 67 -67z m6313 437 c17 -20 5 -45 -20 -45 -11 0 -23 7 -26 15 -6
15 11 45 26 45 4 0 13 -7 20 -15z m320 0 c17 -20 5 -45 -20 -45 -11 0 -23 7
-26 15 -6 15 11 45 26 45 4 0 13 -7 20 -15z m320 0 c18 -21 5 -47 -22 -43 -26
3 -37 36 -16 49 18 12 24 11 38 -6z m330 -13 c-1 -18 -19 -34 -36 -30 -22 4
-31 37 -13 49 13 8 49 -6 49 -19z m308 -6 c-2 -13 -12 -22 -25 -24 -19 -3 -23
1 -23 21 0 14 6 27 13 30 22 7 38 -5 35 -27z m319 -10 c-8 -20 -43 -21 -51 -1
-3 8 2 22 11 30 14 15 18 15 31 1 8 -8 12 -22 9 -30z m-10107 19 c0 -8 -4 -15
-10 -15 -5 0 -10 7 -10 15 0 8 5 15 10 15 6 0 10 -7 10 -15z m455 -200 c0 -13
-8 -21 -22 -23 -19 -3 -23 1 -23 23 0 22 4 26 23 23 14 -2 22 -10 22 -23z
m8055 -120 c17 -20 5 -45 -20 -45 -11 0 -23 7 -26 15 -6 15 11 45 26 45 4 0
13 -7 20 -15z m320 0 c17 -20 5 -45 -20 -45 -23 0 -35 22 -26 45 7 19 30 19
46 0z m319 1 c15 -18 3 -46 -20 -46 -25 0 -35 26 -19 45 15 19 24 19 39 1z
m321 -1 c10 -12 10 -18 0 -30 -25 -30 -61 -7 -46 30 3 8 12 15 19 15 8 0 20
-7 27 -15z m318 -19 c-2 -13 -10 -21 -23 -21 -23 0 -33 34 -14 45 20 13 40 -1
37 -24z m310 25 c19 -12 11 -45 -12 -49 -24 -5 -37 17 -25 40 11 20 18 22 37
9z m-1580 -347 c4 -29 -23 -51 -43 -34 -16 13 -20 42 -8 54 14 14 48 1 51 -20z
m312 11 c17 -20 5 -45 -20 -45 -23 0 -35 22 -26 45 7 19 30 19 46 0z m320 -1
c11 -12 10 -18 -3 -31 -8 -9 -23 -13 -31 -10 -19 8 -21 43 -3 50 20 9 24 8 37
-9z m320 1 c10 -12 10 -18 0 -30 -25 -30 -61 -7 -46 30 3 8 12 15 19 15 8 0
20 -7 27 -15z m315 -15 c0 -16 -6 -26 -18 -28 -19 -4 -32 20 -23 44 9 25 41
13 41 -16z m313 21 c19 -11 11 -45 -11 -49 -19 -4 -32 20 -23 43 6 17 15 19
34 6z m-1583 -351 c0 -18 -6 -26 -23 -28 -13 -2 -25 3 -28 12 -10 26 4 48 28
44 17 -2 23 -10 23 -28z m320 0 c0 -18 -6 -26 -23 -28 -13 -2 -25 3 -28 12
-10 26 4 48 28 44 17 -2 23 -10 23 -28z m315 15 c10 -12 10 -18 0 -30 -25 -30
-61 -7 -46 30 3 8 12 15 19 15 8 0 20 -7 27 -15z m320 0 c10 -12 10 -18 0 -30
-25 -30 -61 -7 -46 30 3 8 12 15 19 15 8 0 20 -7 27 -15z m315 -15 c0 -16 -6
-26 -18 -28 -19 -4 -32 20 -23 44 9 25 41 13 41 -16z m320 0 c0 -16 -6 -26
-18 -28 -19 -4 -32 20 -23 44 9 25 41 13 41 -16z m-1587 -326 c4 -26 -26 -40
-45 -21 -8 7 -11 21 -7 31 9 24 48 17 52 -10z m316 9 c9 -21 -16 -46 -37 -37
-17 6 -23 35 -10 47 12 13 41 7 47 -10z m316 2 c10 -12 10 -18 0 -30 -25 -30
-61 -7 -46 30 3 8 12 15 19 15 8 0 20 -7 27 -15z m320 0 c10 -12 10 -18 0 -30
-25 -30 -61 -7 -46 30 3 8 12 15 19 15 8 0 20 -7 27 -15z m324 0 c8 -22 -4
-45 -24 -45 -10 0 -23 7 -30 15 -15 18 2 45 30 45 10 0 20 -7 24 -15z m314
-11 c4 -29 -23 -51 -43 -34 -16 13 -20 42 -8 54 14 14 48 1 51 -20z"/>
<path d="M8682 4978 c-35 -35 14 -102 57 -79 45 25 33 91 -17 91 -16 0 -33 -5
-40 -12z"/>
<path d="M3480 4414 l0 -77 56 7 c31 3 64 11 74 16 23 12 34 44 26 75 -11 42
-33 55 -97 55 l-59 0 0 -76z"/>
<path d="M2900 4410 l0 -82 57 4 c65 6 93 30 93 83 0 45 -29 67 -95 73 l-55 4
0 -82z"/>
<path d="M4142 4344 c-17 -48 -30 -89 -28 -91 2 -2 31 -3 64 -1 l60 3 -32 89
-32 88 -32 -88z"/>
<path d="M5052 3602 c-12 -32 -22 -61 -22 -65 0 -4 23 -7 50 -7 28 0 50 4 50
10 0 14 -44 120 -50 120 -3 0 -15 -26 -28 -58z"/>
<path d="M5580 3580 l0 -110 54 0 c63 0 99 23 116 74 26 78 -33 146 -127 146
l-43 0 0 -110z"/>
<path d="M4600 3200 l0 -60 41 0 c70 0 111 38 88 83 -17 32 -28 37 -81 37
l-48 0 0 -60z"/>
<path d="M4922 3172 c-12 -32 -22 -61 -22 -65 0 -4 23 -7 50 -7 28 0 50 4 50
9 0 16 -43 121 -49 121 -3 0 -16 -26 -29 -58z"/>
<path d="M5308 3263 c-27 -7 -27 -46 -1 -75 14 -16 18 -16 44 -2 34 17 40 58
10 74 -20 10 -25 11 -53 3z"/>
<path d="M5281 3111 c-26 -26 -27 -43 -3 -64 20 -19 68 -22 92 -7 12 8 8 17
-26 51 l-42 41 -21 -21z"/>
<path d="M5690 3199 l0 -62 50 5 c59 6 80 21 80 59 0 37 -33 59 -87 59 l-43 0
0 -61z"/>
<path d="M2372 2998 c-7 -7 -12 -24 -12 -40 0 -50 66 -62 91 -17 23 43 -44 92
-79 57z"/>
<path d="M2752 1728 c-15 -15 -16 -60 0 -76 18 -18 53 -14 74 9 17 19 17 23 3
47 -16 30 -57 40 -77 20z"/>
<path d="M1690 2070 c-23 -23 -24 -33 -10 -61 12 -22 59 -26 78 -7 18 18 15
53 -6 71 -24 22 -38 21 -62 -3z"/>
<path d="M2236 864 c-31 -30 -9 -84 34 -84 22 0 50 26 50 46 0 48 -51 71 -84
38z"/>
<path d="M0 8216 l0 -207 29 16 c17 8 49 28 73 44 24 15 109 72 191 125 81 53
147 103 147 111 0 8 5 15 12 15 7 0 8 3 2 9 -5 5 -54 18 -109 29 -88 18 -103
19 -122 6 -30 -19 -54 -18 -29 1 11 8 18 16 15 18 -2 2 -35 9 -74 15 -38 6
-85 14 -102 18 l-33 7 0 -207z m90 64 c-20 -13 -33 -13 -25 0 3 6 14 10 23 10
15 0 15 -2 2 -10z"/>
<path d="M305 8184 c-192 -130 -277 -196 -230 -180 28 10 465 299 465 309 0
23 -56 -8 -235 -129z"/>
<path d="M0 7964 c0 -14 3 -14 15 -4 8 7 15 14 15 16 0 2 -7 4 -15 4 -8 0 -15
-7 -15 -16z"/>
<path d="M0 7798 c0 -31 13 -30 30 1 7 15 5 20 -10 24 -17 4 -20 0 -20 -25z"/>
<path d="M60 7789 c-41 -17 -60 -40 -60 -75 0 -36 -9 -31 135 -69 l50 -14 63
42 c59 39 79 67 47 67 -8 0 -55 14 -105 30 -100 33 -95 33 -130 19z"/>
<path d="M0 7585 c0 -41 2 -75 4 -75 10 0 157 103 152 107 -3 3 -141 42 -153
43 -2 0 -3 -34 -3 -75z"/>
<path d="M0 7356 l0 -42 285 -84 c233 -69 284 -87 280 -100 -5 -12 -4 -13 6
-2 7 6 20 12 29 12 19 0 110 58 110 70 0 4 -12 10 -27 12 -16 3 -127 31 -248
63 -121 31 -268 69 -327 85 l-108 28 0 -42z"/>
<path d="M0 6914 l0 -205 73 51 c39 28 131 93 204 143 73 51 132 97 133 103 0
5 -24 16 -52 23 -70 17 -188 49 -267 72 -35 11 -69 19 -77 19 -12 0 -14 -36
-14 -206z"/>
<path d="M333 6917 c-61 -45 -162 -117 -222 -160 -81 -57 -111 -83 -111 -98 0
-26 -18 -36 212 127 92 66 192 136 223 157 30 21 55 42 55 48 0 26 -56 -1
-157 -74z"/>
<path d="M539 6980 c-14 -4 -68 -38 -120 -75 -52 -38 -123 -89 -159 -113 -36
-25 -84 -59 -107 -76 -23 -17 -67 -49 -97 -70 l-56 -39 0 -204 c0 -112 3 -202
8 -202 4 1 15 1 25 0 25 -2 21 -18 -4 -17 -12 1 -24 -5 -26 -12 -3 -8 1 -10
14 -6 17 6 17 6 0 -7 -16 -13 -17 -60 -15 -806 l3 -792 61 47 c34 26 160 121
280 212 121 90 221 167 224 170 3 3 23 19 45 35 22 17 42 32 45 35 3 3 34 28
69 55 36 28 73 57 82 65 10 8 37 29 61 47 35 26 388 292 477 360 13 10 44 38
69 62 24 25 57 52 73 60 16 9 190 142 389 296 198 154 407 316 464 360 58 44
104 84 102 89 -4 16 -556 168 -589 163 -12 -2 -15 -2 -7 1 23 7 -102 43 -131
36 -23 -4 -223 45 -404 101 -71 21 -80 20 -142 -25 -31 -22 -61 -40 -67 -40
-5 0 13 17 42 38 57 41 64 59 27 68 -14 3 -25 10 -25 15 0 5 -12 9 -27 10 -25
0 -26 1 -8 9 19 8 19 9 -2 9 -13 1 -40 7 -60 15 -55 20 -156 51 -253 76 -47
13 -103 29 -124 37 -24 8 -56 12 -80 9 -30 -4 -35 -3 -21 3 25 12 1 13 -36 1z
m104 -17 c-7 -2 -19 -2 -25 0 -7 3 -2 5 12 5 14 0 19 -2 13 -5z m94 -29 c-3
-3 -12 -4 -19 -1 -8 3 -5 6 6 6 11 1 17 -2 13 -5z m340 -100 c-3 -3 -12 -4
-19 -1 -8 3 -5 6 6 6 11 1 17 -2 13 -5z m680 -190 c-3 -3 -12 -4 -19 -1 -8 3
-5 6 6 6 11 1 17 -2 13 -5z m50 -20 c-3 -3 -12 -4 -19 -1 -8 3 -5 6 6 6 11 1
17 -2 13 -5z m-1372 -444 c-53 -55 -55 -84 -5 -107 43 -20 47 -27 26 -48 -12
-12 -26 -11 -100 11 l-86 24 -42 -21 -43 -21 24 26 c29 31 25 37 -49 64 -66
24 -127 57 -93 49 13 -3 23 -1 23 4 0 5 -5 9 -12 9 -6 0 -9 2 -6 5 3 3 48 -4
100 -15 111 -25 137 -21 233 34 33 19 62 33 64 30 3 -2 -13 -22 -34 -44z
m1015 -478 c0 -9 -62 -34 -69 -27 -2 3 4 12 15 20 20 15 54 20 54 7z"/>
<path d="M1198 6803 c7 -3 16 -2 19 1 4 3 -2 6 -13 5 -11 0 -14 -3 -6 -6z"/>
<path d="M1748 6793 c6 -2 18 -2 25 0 6 3 1 5 -13 5 -14 0 -19 -2 -12 -5z"/>
<path d="M1678 6663 c6 -2 18 -2 25 0 6 3 1 5 -13 5 -14 0 -19 -2 -12 -5z"/>
<path d="M2648 6543 c7 -3 16 -2 19 1 4 3 -2 6 -13 5 -11 0 -14 -3 -6 -6z"/>
<path d="M1735 5766 c-16 -6 -36 -17 -43 -23 -17 -16 -26 -17 -16 -2 7 12 -33
3 -52 -12 -6 -5 -32 -12 -58 -15 -25 -4 -46 -10 -46 -13 0 -3 17 -12 38 -19
74 -26 81 -26 107 2 13 14 28 26 34 26 5 0 20 9 33 20 12 11 32 27 43 35 24
18 5 18 -40 1z"/>
<path d="M1424 5631 c4 -6 -2 -18 -14 -28 -25 -22 -27 -48 -3 -39 15 6 15 4
-2 -14 -22 -24 -33 -26 -31 -4 0 9 -5 19 -13 22 -8 3 -11 0 -7 -6 3 -6 2 -13
-4 -17 -5 -3 -10 -1 -10 6 0 8 -6 6 -18 -4 -10 -10 -22 -17 -25 -17 -4 0 -15
-8 -25 -17 -10 -10 -35 -32 -55 -49 -20 -17 -34 -33 -31 -37 3 -3 -4 -8 -15
-12 -12 -3 -21 -11 -21 -16 0 -13 9 -11 26 6 25 24 31 18 28 -30 -2 -25 -1
-45 2 -45 2 0 22 13 44 29 30 21 36 31 27 40 -9 9 -6 11 13 9 20 -2 24 1 22
17 -2 16 -1 17 7 6 8 -12 11 -12 24 0 9 8 41 32 71 54 30 22 53 46 51 53 -2 6
3 12 11 12 9 0 30 10 46 22 l30 21 -48 19 c-77 29 -87 31 -80 19z m46 -31 c0
-5 -5 -10 -11 -10 -5 0 -7 5 -4 10 3 6 8 10 11 10 2 0 4 -4 4 -10z m-45 -80
c3 -5 1 -10 -4 -10 -6 0 -11 5 -11 10 0 6 2 10 4 10 3 0 8 -4 11 -10z m-122
-7 c-25 -10 -12 -25 17 -21 17 3 30 0 30 -5 0 -5 -17 -7 -40 -4 -39 5 -55 -8
-25 -19 12 -5 13 -9 3 -21 -14 -17 -73 -49 -64 -35 3 6 0 13 -6 15 -10 4 -9 8
2 16 8 6 11 11 7 11 -4 0 9 16 30 35 21 19 43 35 48 34 6 0 4 -3 -2 -6z m57
-57 c0 -9 -30 -14 -35 -6 -4 6 3 10 14 10 12 0 21 -2 21 -4z m-105 -76 c-3 -5
-11 -10 -16 -10 -6 0 -7 5 -4 10 3 6 11 10 16 10 6 0 7 -4 4 -10z"/>
<path d="M1246 5453 c-9 -22 -3 -25 19 -10 15 12 16 15 2 20 -9 3 -18 -1 -21
-10z"/>
<path d="M8155 5580 c-15 -17 -16 -24 -7 -45 15 -32 37 -41 68 -27 17 8 24 20
24 40 0 52 -50 71 -85 32z"/>
<path d="M1167 5330 c-3 -13 0 -20 9 -20 15 0 19 26 5 34 -5 3 -11 -3 -14 -14z"/>
<path d="M10754 5105 c-15 -23 -15 -27 0 -50 28 -42 46 -32 46 25 0 57 -18 67
-46 25z"/>
<path d="M802 5049 c-7 -10 -19 -19 -27 -19 -8 0 -15 -4 -15 -10 0 -5 5 -10
12 -10 6 0 3 -7 -8 -15 -10 -8 -14 -15 -8 -15 16 0 45 35 37 45 -5 4 -1 6 7 3
13 -4 40 13 40 25 0 15 -28 12 -38 -4z"/>
<path d="M694 5016 c-7 -29 -23 -36 -20 -9 0 10 -7 19 -17 21 -15 3 -16 0 -7
-22 5 -14 6 -26 1 -26 -4 0 -6 -10 -4 -23 4 -18 0 -23 -16 -23 -25 0 -26 5 -5
34 17 25 11 44 -11 36 -8 -4 -13 -9 -11 -13 3 -4 -9 -13 -25 -20 -23 -10 -27
-16 -19 -26 8 -9 6 -14 -5 -19 -9 -3 -13 -2 -10 4 3 6 2 10 -4 10 -20 0 -21
-19 -1 -30 15 -8 19 -17 15 -33 -5 -19 -5 -20 5 -4 6 9 21 17 33 17 17 0 19
-2 7 -10 -23 -15 -4 -23 20 -8 34 19 97 78 85 78 -6 0 -17 -6 -24 -12 -10 -11
-11 -9 -5 5 5 13 13 17 28 13 12 -3 26 -2 32 2 19 12 11 53 -13 69 -21 14 -23
13 -29 -11z m-74 -106 c0 -5 -4 -10 -9 -10 -6 0 -13 5 -16 10 -3 6 1 10 9 10
9 0 16 -4 16 -10z"/>
<path d="M3472 2528 c-20 -20 -14 -56 13 -74 23 -15 27 -15 50 0 27 18 31 36
15 67 -12 22 -59 26 -78 7z"/>
<path d="M10245 10 c-4 -6 3 -10 14 -10 25 0 27 6 6 13 -8 4 -17 2 -20 -3z"/>
</g>
</svg>
