<?xml version="1.0" standalone="no"?>
<!DOCTYPE svg PUBLIC "-//W3C//DTD SVG 20010904//EN"
 "http://www.w3.org/TR/2001/REC-SVG-20010904/DTD/svg10.dtd">
<svg version="1.0" xmlns="http://www.w3.org/2000/svg"
 width="1080.000000pt" height="1080.000000pt" viewBox="0 0 1080.000000 1080.000000"
 preserveAspectRatio="xMidYMid meet">

<g transform="translate(0.000000,1080.000000) scale(0.100000,-0.100000)"
fill="#000000" stroke="none">
<path d="M5131 9514 c-56 -69 -101 -128 -99 -133 2 -5 38 -37 82 -71 l78 -63
66 74 c37 41 89 95 117 121 32 31 46 51 39 55 -13 9 -83 67 -122 101 -56 48
-51 50 -161 -84z"/>
<path d="M4769 8978 c-23 -40 -60 -104 -82 -142 -32 -56 -37 -70 -26 -80 8 -7
48 -45 90 -84 l76 -72 70 138 c94 182 92 174 44 217 -58 52 -113 95 -122 95
-4 0 -27 -33 -50 -72z"/>
<path d="M7133 7681 l-82 -88 154 -79 154 -79 36 35 c40 38 110 129 104 135
-6 5 -280 165 -282 164 -1 0 -39 -40 -84 -88z"/>
<path d="M7758 7305 l-66 -84 24 -16 c13 -8 69 -58 123 -111 l99 -95 46 53
c25 29 58 71 75 93 l29 40 -123 100 c-67 54 -126 100 -131 102 -5 1 -39 -35
-76 -82z"/>
<path d="M2885 6922 c-53 -62 -105 -129 -105 -135 0 -8 241 -202 252 -202 5 0
38 36 74 80 l64 80 -58 49 c-31 27 -84 78 -118 113 -33 35 -62 63 -65 63 -2 0
-22 -21 -44 -48z"/>
<path d="M3426 6449 c-37 -45 -66 -83 -64 -84 2 -1 67 -39 146 -84 l142 -82
33 38 c17 21 54 61 80 89 l48 52 -93 50 c-141 75 -196 102 -211 102 -7 0 -44
-37 -81 -81z"/>
<path d="M6017 5318 c-13 -24 -50 -93 -80 -154 l-56 -111 32 -30 c53 -49 123
-103 135 -103 6 0 47 64 92 142 l81 142 -33 25 c-18 14 -57 49 -86 78 -29 29
-54 53 -56 53 -2 0 -15 -19 -29 -42z"/>
<path d="M5560 4598 l-114 -121 34 -29 c87 -74 152 -120 159 -112 61 70 201
245 200 251 0 7 -144 124 -159 130 -3 1 -57 -52 -120 -119z"/>
</g>
</svg>
